# 3ds Max Wavefront OBJ Exporter v0.97b - (c)2007 guruware
# File Created: 25.06.2012 22:17:44

mtllib Low.mtl

#
# object rockLP001
#

v  -0.8092 0.1945 0.8092
v  -0.9648 0.0316 0.6145
v  -0.5780 0.0596 0.5785
v  -0.5624 0.1190 0.8550
v  -0.1810 0.1069 0.5605
v  -0.2176 0.1623 0.8747
v  0.1800 0.0460 0.5827
v  0.1323 0.1660 0.9072
v  0.5997 -0.0040 0.6295
v  0.5081 0.1284 0.9213
v  0.7775 0.2652 0.4564
v  0.7324 0.2904 0.7463
v  -0.9907 -0.0334 0.2360
v  -0.6423 -0.1137 0.2473
v  -0.2078 -0.0455 0.2082
v  0.2419 -0.1215 0.2212
v  0.6682 -0.1001 0.2327
v  0.8095 0.1756 0.1641
v  -0.9353 0.0183 -0.1448
v  -0.7048 -0.2106 -0.2008
v  -0.2442 -0.3156 -0.2631
v  0.2318 -0.1386 -0.2315
v  0.6139 -0.0259 -0.1958
v  0.8521 0.1397 -0.1788
v  -0.7846 0.1878 -0.4391
v  -0.5869 -0.0136 -0.5656
v  -0.2054 -0.0691 -0.6133
v  0.1746 0.0893 -0.5112
v  0.4849 0.1559 -0.4849
v  0.8142 0.1790 -0.4930
v  -0.7100 0.2502 -0.6858
v  -0.5220 0.0775 -0.8757
v  -0.1682 0.0967 -0.8302
v  0.1376 0.2196 -0.7108
v  0.4139 0.2637 -0.6942
v  0.6762 0.2786 -0.6762
v  -0.6992 1.6143 0.7000
v  -0.4933 1.7013 0.7650
v  -0.5506 1.8332 0.5505
v  -0.7625 1.6872 0.4924
v  -0.2300 1.8650 0.9304
v  -0.2484 2.0217 0.6783
v  0.0985 1.8378 0.8641
v  0.1495 2.0361 0.6848
v  0.4140 1.8302 0.8448
v  0.5211 1.9719 0.6215
v  0.7450 1.8456 0.8786
v  0.8510 1.9395 0.6023
v  -0.6706 1.9633 0.2422
v  -0.8543 1.7408 0.2113
v  -0.2942 2.1284 0.2951
v  0.1507 2.0979 0.3047
v  0.5192 1.9885 0.2566
v  0.8947 1.9893 0.2391
v  -0.6367 1.9297 -0.1453
v  -0.9243 1.8161 -0.1117
v  -0.3028 2.0797 -0.1415
v  0.1734 2.2701 -0.1732
v  0.5505 2.0479 -0.1464
v  0.7994 1.8587 -0.1023
v  -0.6133 1.9057 -0.5165
v  -0.8501 1.7468 -0.4140
v  -0.2755 2.0024 -0.5505
v  0.1597 2.1017 -0.6006
v  0.4905 1.8766 -0.4905
v  0.6601 1.7212 -0.3715
v  -0.4852 1.6453 -0.6439
v  -0.7122 1.6000 -0.5730
v  -0.2265 1.7118 -0.7023
v  0.1214 1.8356 -0.8459
v  0.3876 1.7217 -0.6887
v  0.5616 1.5967 -0.5616
v  -0.5992 0.3936 0.9817
v  -0.8169 0.5163 0.8174
v  -0.2203 0.4300 1.0013
v  0.1679 0.4839 0.9737
v  0.5839 0.4469 1.0381
v  0.8267 0.5182 0.8616
v  -0.5819 0.7856 0.9731
v  -0.8005 0.8294 0.8023
v  -0.2652 0.8014 1.2124
v  0.1897 0.8441 1.1856
v  0.6372 0.8321 1.1422
v  0.9540 0.8376 0.9837
v  -0.5924 1.1532 0.9749
v  -0.8103 1.1419 0.8122
v  -0.2791 1.2767 1.2895
v  0.2347 1.3343 1.3979
v  0.7175 1.2966 1.2972
v  0.9516 1.2278 1.0453
v  -0.5755 1.4907 0.9407
v  -0.8266 1.4390 0.8279
v  -0.2583 1.6485 1.1185
v  0.1411 1.6273 1.0269
v  0.5216 1.6278 1.0259
v  0.8540 1.5847 0.9814
v  0.8403 0.5244 0.5174
v  0.9626 0.4306 0.1845
v  1.1168 0.3378 -0.2232
v  1.0874 0.3329 -0.6599
v  0.8338 0.4951 -0.8338
v  0.9836 0.8086 0.6282
v  1.0222 0.8026 0.2302
v  1.0363 0.7954 -0.2031
v  1.0643 0.7719 -0.6367
v  0.9079 0.8211 -0.9078
v  0.9607 1.2207 0.6600
v  0.9112 1.2075 0.2514
v  0.8919 1.2062 -0.1444
v  0.9136 1.1903 -0.5320
v  0.7566 1.1454 -0.7566
v  0.9038 1.6091 0.6623
v  0.9657 1.6425 0.2841
v  0.9384 1.6157 -0.1238
v  0.7601 1.4977 -0.4244
v  0.6507 1.3844 -0.6507
v  0.5085 0.4568 -0.8184
v  0.1834 0.4055 -0.8417
v  -0.1792 0.3599 -0.9590
v  -0.6225 0.3393 -1.0241
v  -0.8373 0.4503 -0.8057
v  0.5940 0.7607 -0.9715
v  0.1987 0.6916 -0.9916
v  -0.2431 0.7047 -1.0694
v  -0.6681 0.7551 -1.0450
v  -0.8715 0.7863 -0.8160
v  0.5557 1.1613 -0.9507
v  0.1609 1.1152 -0.9500
v  -0.2618 1.1510 -1.0043
v  -0.5807 1.1274 -0.8532
v  -0.7728 1.0941 -0.7072
v  0.4420 1.4792 -0.7998
v  0.1320 1.5472 -0.9889
v  -0.2579 1.4694 -0.8069
v  -0.5365 1.4004 -0.7094
v  -0.7111 1.3507 -0.5951
v  -0.9585 0.3955 -0.5368
v  -1.0976 0.2970 -0.1851
v  -1.0381 0.3437 0.2388
v  -1.0319 0.3908 0.6351
v  -1.1306 0.7354 -0.6276
v  -1.2485 0.7175 -0.2014
v  -1.1482 0.7521 0.2515
v  -1.0633 0.8042 0.6455
v  -1.0216 1.1537 -0.5400
v  -1.3383 1.2066 -0.2143
v  -1.1643 1.1957 0.2527
v  -1.0060 1.1941 0.6148
v  -0.9228 1.4800 -0.4543
v  -1.1135 1.5702 -0.1603
v  -0.9535 1.4859 0.2294
v  -0.8529 1.4518 0.5361
# 152 vertices

vn -0.5009 -0.4523 0.7379
vn -0.5756 -0.6536 0.4915
vn 0.0711 -0.9250 0.3732
vn -0.1186 -0.7942 0.5960
vn -0.0336 -0.9575 0.2866
vn 0.0129 -0.7604 0.6493
vn -0.1211 -0.9373 0.3267
vn -0.1021 -0.6424 0.7595
vn 0.4583 -0.8024 0.3822
vn 0.2726 -0.6786 0.6821
vn 0.8748 -0.4034 0.2683
vn 0.7955 -0.5570 0.2386
vn -0.7670 -0.6399 0.0474
vn -0.0261 -0.9384 0.3445
vn 0.0606 -0.9171 0.3941
vn -0.0280 -0.9797 0.1987
vn 0.5004 -0.8571 0.1226
vn 0.8362 -0.4939 0.2386
vn -0.8007 -0.5106 -0.3133
vn -0.4430 -0.8710 -0.2122
vn 0.0935 -0.9879 -0.1241
vn 0.2501 -0.9327 -0.2601
vn 0.3441 -0.8875 -0.3066
vn 0.6182 -0.7852 -0.0348
vn -0.6955 -0.5383 -0.4759
vn -0.4700 -0.7395 -0.4818
vn 0.1275 -0.8099 -0.5726
vn 0.3030 -0.7579 -0.5777
vn 0.1500 -0.8235 -0.5471
vn 0.2615 -0.8701 -0.4178
vn -0.7407 -0.5883 -0.3245
vn -0.2672 -0.7569 -0.5964
vn 0.2762 -0.6553 -0.7030
vn 0.3112 -0.6709 -0.6730
vn 0.1412 -0.7257 -0.6733
vn 0.1486 -0.7386 -0.6575
vn -0.6212 0.6599 0.4227
vn -0.5677 0.6495 0.5058
vn -0.5487 0.6910 0.4706
vn -0.7473 0.5282 0.4032
vn -0.2484 0.7187 0.6494
vn -0.3202 0.8578 0.4021
vn 0.1643 0.6449 0.7464
vn 0.1432 0.8784 0.4559
vn 0.0094 0.7644 0.6447
vn 0.1267 0.9303 0.3442
vn 0.2879 0.7378 0.6105
vn 0.6271 0.7248 0.2854
vn -0.5976 0.7838 0.1691
vn -0.7790 0.5576 0.2868
vn -0.2708 0.9443 0.1870
vn 0.1905 0.9518 0.2404
vn 0.2047 0.9776 0.0484
vn 0.6367 0.7585 -0.1393
vn -0.4188 0.9058 -0.0639
vn -0.6488 0.7610 0.0066
vn -0.3717 0.9138 -0.1641
vn 0.1377 0.9866 -0.0870
vn 0.5635 0.8118 -0.1534
vn 0.6791 0.6382 -0.3627
vn -0.4359 0.6825 -0.5867
vn -0.7151 0.4447 -0.5394
vn -0.3158 0.7778 -0.5434
vn 0.1777 0.8184 -0.5465
vn 0.6580 0.5357 -0.5292
vn 0.6877 0.4596 -0.5621
vn -0.3452 0.3254 -0.8803
vn -0.5327 0.2730 -0.8011
vn -0.3747 0.3823 -0.8446
vn 0.0771 0.5344 -0.8417
vn 0.6241 0.4451 -0.6422
vn 0.6951 0.4430 -0.5662
vn -0.3527 -0.2388 0.9047
vn -0.6365 0.0135 0.7712
vn 0.0610 -0.4605 0.8856
vn -0.0167 -0.3545 0.9349
vn 0.2407 -0.3502 0.9052
vn 0.8069 -0.4699 0.3580
vn -0.6171 0.0007 0.7869
vn -0.5749 -0.0062 0.8182
vn -0.2373 -0.3015 0.9235
vn 0.0982 -0.4428 0.8912
vn 0.2601 -0.3170 0.9121
vn 0.8282 -0.2252 0.5132
vn -0.6459 0.0614 0.7609
vn -0.6124 0.0008 0.7905
vn -0.4251 0.1972 0.8834
vn 0.0151 0.2537 0.9672
vn 0.4363 0.1349 0.8896
vn 0.8935 0.0387 0.4475
vn -0.5434 0.3626 0.7571
vn -0.6948 0.3659 0.6192
vn -0.2312 0.5200 0.8223
vn 0.0521 0.6691 0.7413
vn 0.0719 0.6616 0.7464
vn 0.6927 0.4568 0.5581
vn 0.9131 -0.3602 0.1908
vn 0.9049 -0.2782 0.3223
vn 0.9237 -0.3574 0.1383
vn 0.7020 -0.5169 -0.4900
vn 0.2076 -0.4727 -0.8564
vn 0.9817 -0.1820 0.0559
vn 0.9949 0.0125 0.0997
vn 0.9743 0.2099 0.0814
vn 0.9371 0.2468 -0.2469
vn 0.6059 0.1567 -0.7800
vn 0.9983 0.0581 -0.0060
vn 0.9970 0.0507 -0.0583
vn 0.9806 0.1819 -0.0734
vn 0.8480 0.4464 -0.2856
vn 0.6586 0.5109 -0.5526
vn 0.9716 0.1846 0.1483
vn 0.9936 0.1124 -0.0136
vn 0.9230 0.2170 -0.3177
vn 0.7705 0.3990 -0.4971
vn 0.6485 0.5124 -0.5629
vn 0.0885 -0.5277 -0.8448
vn 0.2037 -0.5128 -0.8340
vn 0.2391 -0.3339 -0.9118
vn -0.3538 -0.3359 -0.8729
vn -0.7346 -0.3827 -0.5603
vn 0.1160 -0.1701 -0.9786
vn 0.1222 -0.2052 -0.9711
vn 0.0271 -0.0596 -0.9979
vn -0.3949 0.1665 -0.9035
vn -0.6446 0.1764 -0.7439
vn 0.3527 0.2979 -0.8870
vn 0.0047 0.0731 -0.9973
vn -0.1395 0.3293 -0.9339
vn -0.4561 0.4285 -0.7799
vn -0.5151 0.4322 -0.7402
vn 0.5922 0.4695 -0.6549
vn -0.0143 0.2604 -0.9654
vn -0.3340 0.3742 -0.8651
vn -0.4612 0.3611 -0.8105
vn -0.4925 0.3220 -0.8086
vn -0.7201 -0.5675 -0.3992
vn -0.8758 -0.4524 -0.1682
vn -0.9743 -0.2111 0.0789
vn -0.8774 -0.1145 0.4658
vn -0.8064 -0.1170 -0.5796
vn -0.9636 -0.2660 -0.0258
vn -0.9614 -0.1367 0.2389
vn -0.8397 -0.0025 0.5430
vn -0.5748 0.3670 -0.7314
vn -0.9573 0.2527 -0.1405
vn -0.9008 0.2635 0.3452
vn -0.8481 0.2619 0.4606
vn -0.6006 0.3677 -0.7099
vn -0.8270 0.5489 -0.1215
vn -0.8136 0.4588 0.3572
vn -0.8213 0.5093 0.2570
# 152 vertex normals

vt 0.3873 0.4002 0.0000
vt 0.4433 0.3816 0.0000
vt 0.4309 0.4493 0.0000
vt 0.3833 0.4420 0.0000
vt 0.4133 0.5167 0.0000
vt 0.3638 0.4959 0.0000
vt 0.3994 0.5751 0.0000
vt 0.3486 0.5501 0.0000
vt 0.3754 0.6397 0.0000
vt 0.3397 0.6086 0.0000
vt 0.3613 0.6967 0.0000
vt 0.3294 0.6591 0.0000
vt 0.5159 0.4005 0.0000
vt 0.4950 0.4600 0.0000
vt 0.4723 0.5360 0.0000
vt 0.4550 0.6131 0.0000
vt 0.4269 0.6769 0.0000
vt 0.4071 0.7222 0.0000
vt 0.5834 0.4324 0.0000
vt 0.5667 0.4854 0.0000
vt 0.5520 0.5645 0.0000
vt 0.5231 0.6469 0.0000
vt 0.4898 0.7129 0.0000
vt 0.4601 0.7564 0.0000
vt 0.6423 0.4702 0.0000
vt 0.6251 0.5252 0.0000
vt 0.6074 0.5974 0.0000
vt 0.5799 0.6736 0.0000
vt 0.5521 0.7325 0.0000
vt 0.5127 0.7968 0.0000
vt 0.6774 0.5037 0.0000
vt 0.6629 0.5578 0.0000
vt 0.6405 0.6179 0.0000
vt 0.6206 0.6812 0.0000
vt 0.6024 0.7337 0.0000
vt 0.5856 0.7806 0.0000
vt 0.8702 0.0711 0.0000
vt 0.8817 0.1127 0.0000
vt 0.8351 0.1124 0.0000
vt 0.8284 0.0648 0.0000
vt 0.9027 0.1775 0.0000
vt 0.8507 0.1797 0.0000
vt 0.8986 0.2441 0.0000
vt 0.8515 0.2520 0.0000
vt 0.8903 0.3036 0.0000
vt 0.8412 0.3210 0.0000
vt 0.8913 0.3635 0.0000
vt 0.8380 0.3810 0.0000
vt 0.7724 0.1018 0.0000
vt 0.7713 0.0516 0.0000
vt 0.7823 0.1742 0.0000
vt 0.7849 0.2544 0.0000
vt 0.7736 0.3252 0.0000
vt 0.7692 0.3915 0.0000
vt 0.7034 0.1038 0.0000
vt 0.7044 0.0485 0.0000
vt 0.7083 0.1691 0.0000
vt 0.7027 0.2557 0.0000
vt 0.6980 0.3289 0.0000
vt 0.6962 0.3823 0.0000
vt 0.6391 0.1158 0.0000
vt 0.6410 0.0638 0.0000
vt 0.6368 0.1756 0.0000
vt 0.6323 0.2521 0.0000
vt 0.6239 0.3228 0.0000
vt 0.6243 0.3676 0.0000
vt 0.5856 0.1277 0.0000
vt 0.5933 0.0847 0.0000
vt 0.5813 0.1766 0.0000
vt 0.5776 0.2463 0.0000
vt 0.5740 0.3039 0.0000
vt 0.5685 0.3474 0.0000
vt 0.3325 0.4283 0.0000
vt 0.3294 0.3826 0.0000
vt 0.3140 0.4858 0.0000
vt 0.2975 0.5473 0.0000
vt 0.2908 0.6157 0.0000
vt 0.2871 0.6648 0.0000
vt 0.2642 0.4126 0.0000
vt 0.2718 0.3684 0.0000
vt 0.2426 0.4719 0.0000
vt 0.2308 0.5449 0.0000
vt 0.2296 0.6183 0.0000
vt 0.2325 0.6733 0.0000
vt 0.1973 0.3974 0.0000
vt 0.2152 0.3524 0.0000
vt 0.1598 0.4677 0.0000
vt 0.1431 0.5505 0.0000
vt 0.1516 0.6260 0.0000
vt 0.1709 0.6751 0.0000
vt 0.1347 0.3875 0.0000
vt 0.1644 0.3404 0.0000
vt 0.0926 0.4562 0.0000
vt 0.0670 0.5381 0.0000
vt 0.0779 0.6199 0.0000
vt 0.1119 0.6830 0.0000
vt 0.0852 0.3705 0.0000
vt 0.1242 0.3251 0.0000
vt 0.0445 0.4457 0.0000
vt 0.0223 0.5310 0.0000
vt 0.0290 0.6163 0.0000
vt 0.0631 0.6951 0.0000
vt 0.3200 0.7113 0.0000
vt 0.3648 0.7521 0.0000
vt 0.4186 0.8002 0.0000
vt 0.4594 0.8513 0.0000
vt 0.5270 0.8520 0.0000
vt 0.4788 0.9005 0.0000
vt 0.2638 0.7208 0.0000
vt 0.2999 0.7761 0.0000
vt 0.3411 0.8374 0.0000
vt 0.3900 0.8968 0.0000
vt 0.4111 0.9473 0.0000
vt 0.1930 0.7368 0.0000
vt 0.2275 0.8007 0.0000
vt 0.2637 0.8631 0.0000
vt 0.3056 0.9201 0.0000
vt 0.3291 0.9650 0.0000
vt 0.1247 0.7489 0.0000
vt 0.1504 0.8202 0.0000
vt 0.1928 0.8855 0.0000
vt 0.2395 0.9349 0.0000
vt 0.2738 0.9728 0.0000
vt 0.0693 0.7718 0.0000
vt 0.0948 0.8506 0.0000
vt 0.1486 0.9083 0.0000
vt 0.1961 0.9521 0.0000
vt 0.2297 0.9819 0.0000
vt 0.6473 0.7588 0.0000
vt 0.6423 0.8179 0.0000
vt 0.6586 0.6989 0.0000
vt 0.6823 0.6324 0.0000
vt 0.7069 0.5559 0.0000
vt 0.7282 0.5029 0.0000
vt 0.7125 0.7847 0.0000
vt 0.7096 0.8421 0.0000
vt 0.7171 0.7122 0.0000
vt 0.7421 0.6350 0.0000
vt 0.7684 0.5639 0.0000
vt 0.7901 0.5140 0.0000
vt 0.7896 0.7903 0.0000
vt 0.7889 0.8390 0.0000
vt 0.7953 0.7190 0.0000
vt 0.8167 0.6444 0.0000
vt 0.8334 0.5822 0.0000
vt 0.8442 0.5387 0.0000
vt 0.8598 0.7860 0.0000
vt 0.8520 0.8348 0.0000
vt 0.8672 0.7221 0.0000
vt 0.8781 0.6458 0.0000
vt 0.8846 0.5902 0.0000
vt 0.8900 0.5515 0.0000
vt 0.9139 0.7809 0.0000
vt 0.9084 0.8244 0.0000
vt 0.9175 0.7233 0.0000
vt 0.9212 0.6536 0.0000
vt 0.9255 0.6047 0.0000
vt 0.9332 0.5617 0.0000
vt 0.5001 0.1256 0.0000
vt 0.4938 0.1739 0.0000
vt 0.4480 0.1496 0.0000
vt 0.4597 0.0969 0.0000
vt 0.4857 0.2429 0.0000
vt 0.4343 0.2190 0.0000
vt 0.4652 0.3112 0.0000
vt 0.4016 0.2874 0.0000
vt 0.4274 0.3687 0.0000
vt 0.3658 0.3462 0.0000
vt 0.3860 0.1210 0.0000
vt 0.3992 0.0680 0.0000
vt 0.3618 0.1918 0.0000
vt 0.3287 0.2651 0.0000
vt 0.2949 0.3244 0.0000
vt 0.3119 0.0974 0.0000
vt 0.3310 0.0470 0.0000
vt 0.2852 0.1669 0.0000
vt 0.2521 0.2419 0.0000
vt 0.2259 0.3051 0.0000
vt 0.2469 0.0890 0.0000
vt 0.2743 0.0445 0.0000
vt 0.2177 0.1501 0.0000
vt 0.1891 0.2259 0.0000
vt 0.1727 0.2866 0.0000
vt 0.1971 0.0813 0.0000
vt 0.2283 0.0450 0.0000
vt 0.1652 0.1373 0.0000
vt 0.1441 0.2068 0.0000
vt 0.1285 0.2708 0.0000
# 188 texture coords

g rockLP001
usemtl Standardmaterial
s 1
f 1/1/1 2/2/2 3/3/3 4/4/4 
f 4/4/4 3/3/3 5/5/5 6/6/6 
f 6/6/6 5/5/5 7/7/7 8/8/8 
f 8/8/8 7/7/7 9/9/9 10/10/10 
f 10/10/10 9/9/9 11/11/11 12/12/12 
f 2/2/2 13/13/13 14/14/14 3/3/3 
f 3/3/3 14/14/14 15/15/15 5/5/5 
f 5/5/5 15/15/15 16/16/16 7/7/7 
f 7/7/7 16/16/16 17/17/17 9/9/9 
f 9/9/9 17/17/17 18/18/18 11/11/11 
f 13/13/13 19/19/19 20/20/20 14/14/14 
f 14/14/14 20/20/20 21/21/21 15/15/15 
f 15/15/15 21/21/21 22/22/22 16/16/16 
f 16/16/16 22/22/22 23/23/23 17/17/17 
f 17/17/17 23/23/23 24/24/24 18/18/18 
f 19/19/19 25/25/25 26/26/26 20/20/20 
f 20/20/20 26/26/26 27/27/27 21/21/21 
f 21/21/21 27/27/27 28/28/28 22/22/22 
f 22/22/22 28/28/28 29/29/29 23/23/23 
f 23/23/23 29/29/29 30/30/30 24/24/24 
f 25/25/25 31/31/31 32/32/32 26/26/26 
f 26/26/26 32/32/32 33/33/33 27/27/27 
f 27/27/27 33/33/33 34/34/34 28/28/28 
f 28/28/28 34/34/34 35/35/35 29/29/29 
f 29/29/29 35/35/35 36/36/36 30/30/30 
f 37/37/37 38/38/38 39/39/39 40/40/40 
f 38/38/38 41/41/41 42/42/42 39/39/39 
f 41/41/41 43/43/43 44/44/44 42/42/42 
f 43/43/43 45/45/45 46/46/46 44/44/44 
f 45/45/45 47/47/47 48/48/48 46/46/46 
f 40/40/40 39/39/39 49/49/49 50/50/50 
f 39/39/39 42/42/42 51/51/51 49/49/49 
f 42/42/42 44/44/44 52/52/52 51/51/51 
f 44/44/44 46/46/46 53/53/53 52/52/52 
f 46/46/46 48/48/48 54/54/54 53/53/53 
f 50/50/50 49/49/49 55/55/55 56/56/56 
f 49/49/49 51/51/51 57/57/57 55/55/55 
f 51/51/51 52/52/52 58/58/58 57/57/57 
f 52/52/52 53/53/53 59/59/59 58/58/58 
f 53/53/53 54/54/54 60/60/60 59/59/59 
f 56/56/56 55/55/55 61/61/61 62/62/62 
f 55/55/55 57/57/57 63/63/63 61/61/61 
f 57/57/57 58/58/58 64/64/64 63/63/63 
f 58/58/58 59/59/59 65/65/65 64/64/64 
f 59/59/59 60/60/60 66/66/66 65/65/65 
f 62/62/62 61/61/61 67/67/67 68/68/68 
f 61/61/61 63/63/63 69/69/69 67/67/67 
f 63/63/63 64/64/64 70/70/70 69/69/69 
f 64/64/64 65/65/65 71/71/71 70/70/70 
f 65/65/65 66/66/66 72/72/72 71/71/71 
f 1/1/1 4/4/4 73/73/73 74/74/74 
f 4/4/4 6/6/6 75/75/75 73/73/73 
f 6/6/6 8/8/8 76/76/76 75/75/75 
f 8/8/8 10/10/10 77/77/77 76/76/76 
f 10/10/10 12/12/12 78/78/78 77/77/77 
f 74/74/74 73/73/73 79/79/79 80/80/80 
f 73/73/73 75/75/75 81/81/81 79/79/79 
f 75/75/75 76/76/76 82/82/82 81/81/81 
f 76/76/76 77/77/77 83/83/83 82/82/82 
f 77/77/77 78/78/78 84/84/84 83/83/83 
f 80/80/80 79/79/79 85/85/85 86/86/86 
f 79/79/79 81/81/81 87/87/87 85/85/85 
f 81/81/81 82/82/82 88/88/88 87/87/87 
f 82/82/82 83/83/83 89/89/89 88/88/88 
f 83/83/83 84/84/84 90/90/90 89/89/89 
f 86/86/86 85/85/85 91/91/91 92/92/92 
f 85/85/85 87/87/87 93/93/93 91/91/91 
f 87/87/87 88/88/88 94/94/94 93/93/93 
f 88/88/88 89/89/89 95/95/95 94/94/94 
f 89/89/89 90/90/90 96/96/96 95/95/95 
f 92/92/92 91/91/91 38/97/38 37/98/37 
f 91/91/91 93/93/93 41/99/41 38/97/38 
f 93/93/93 94/94/94 43/100/43 41/99/41 
f 94/94/94 95/95/95 45/101/45 43/100/43 
f 95/95/95 96/96/96 47/102/47 45/101/45 
f 12/12/12 11/11/11 97/103/97 78/78/78 
f 11/11/11 18/18/18 98/104/98 97/103/97 
f 18/18/18 24/24/24 99/105/99 98/104/98 
f 24/24/24 30/30/30 100/106/100 99/105/99 
f 30/30/30 36/107/36 101/108/101 100/106/100 
f 78/78/78 97/103/97 102/109/102 84/84/84 
f 97/103/97 98/104/98 103/110/103 102/109/102 
f 98/104/98 99/105/99 104/111/104 103/110/103 
f 99/105/99 100/106/100 105/112/105 104/111/104 
f 100/106/100 101/108/101 106/113/106 105/112/105 
f 84/84/84 102/109/102 107/114/107 90/90/90 
f 102/109/102 103/110/103 108/115/108 107/114/107 
f 103/110/103 104/111/104 109/116/109 108/115/108 
f 104/111/104 105/112/105 110/117/110 109/116/109 
f 105/112/105 106/113/106 111/118/111 110/117/110 
f 90/90/90 107/114/107 112/119/112 96/96/96 
f 107/114/107 108/115/108 113/120/113 112/119/112 
f 108/115/108 109/116/109 114/121/114 113/120/113 
f 109/116/109 110/117/110 115/122/115 114/121/114 
f 110/117/110 111/118/111 116/123/116 115/122/115 
f 96/96/96 112/119/112 48/124/48 47/102/47 
f 112/119/112 113/120/113 54/125/54 48/124/48 
f 113/120/113 114/121/114 60/126/60 54/125/54 
f 114/121/114 115/122/115 66/127/66 60/126/60 
f 115/122/115 116/123/116 72/128/72 66/127/66 
f 36/36/36 35/35/35 117/129/117 101/130/101 
f 35/35/35 34/34/34 118/131/118 117/129/117 
f 34/34/34 33/33/33 119/132/119 118/131/118 
f 33/33/33 32/32/32 120/133/120 119/132/119 
f 32/32/32 31/31/31 121/134/121 120/133/120 
f 101/130/101 117/129/117 122/135/122 106/136/106 
f 117/129/117 118/131/118 123/137/123 122/135/122 
f 118/131/118 119/132/119 124/138/124 123/137/123 
f 119/132/119 120/133/120 125/139/125 124/138/124 
f 120/133/120 121/134/121 126/140/126 125/139/125 
f 106/136/106 122/135/122 127/141/127 111/142/111 
f 122/135/122 123/137/123 128/143/128 127/141/127 
f 123/137/123 124/138/124 129/144/129 128/143/128 
f 124/138/124 125/139/125 130/145/130 129/144/129 
f 125/139/125 126/140/126 131/146/131 130/145/130 
f 111/142/111 127/141/127 132/147/132 116/148/116 
f 127/141/127 128/143/128 133/149/133 132/147/132 
f 128/143/128 129/144/129 134/150/134 133/149/133 
f 129/144/129 130/145/130 135/151/135 134/150/134 
f 130/145/130 131/146/131 136/152/136 135/151/135 
f 116/148/116 132/147/132 71/153/71 72/154/72 
f 132/147/132 133/149/133 70/155/70 71/153/71 
f 133/149/133 134/150/134 69/156/69 70/155/70 
f 134/150/134 135/151/135 67/157/67 69/156/69 
f 135/151/135 136/152/136 68/158/68 67/157/67 
f 31/159/31 25/160/25 137/161/137 121/162/121 
f 25/160/25 19/163/19 138/164/138 137/161/137 
f 19/163/19 13/165/13 139/166/139 138/164/138 
f 13/165/13 2/167/2 140/168/140 139/166/139 
f 2/167/2 1/1/1 74/74/74 140/168/140 
f 121/162/121 137/161/137 141/169/141 126/170/126 
f 137/161/137 138/164/138 142/171/142 141/169/141 
f 138/164/138 139/166/139 143/172/143 142/171/142 
f 139/166/139 140/168/140 144/173/144 143/172/143 
f 140/168/140 74/74/74 80/80/80 144/173/144 
f 126/170/126 141/169/141 145/174/145 131/175/131 
f 141/169/141 142/171/142 146/176/146 145/174/145 
f 142/171/142 143/172/143 147/177/147 146/176/146 
f 143/172/143 144/173/144 148/178/148 147/177/147 
f 144/173/144 80/80/80 86/86/86 148/178/148 
f 131/175/131 145/174/145 149/179/149 136/180/136 
f 145/174/145 146/176/146 150/181/150 149/179/149 
f 146/176/146 147/177/147 151/182/151 150/181/150 
f 147/177/147 148/178/148 152/183/152 151/182/151 
f 148/178/148 86/86/86 92/92/92 152/183/152 
f 136/180/136 149/179/149 62/184/62 68/185/68 
f 149/179/149 150/181/150 56/186/56 62/184/62 
f 150/181/150 151/182/151 50/187/50 56/186/56 
f 151/182/151 152/183/152 40/188/40 50/187/50 
f 152/183/152 92/92/92 37/98/37 40/188/40 
# 150 polygons

